<svg data-v-423bf9ae="" xmlns="http://www.w3.org/2000/svg" viewBox="0 0 280 106" class="iconLeft"><!----><!----><!----><g data-v-423bf9ae="" id="38cf53db-7700-4bf8-ad83-b7241bceffab" fill="white" transform="matrix(5.870841881720861,0,0,5.870841881720861,124.80214983158638,8.132875821170003)"><path d="M3.57 11.55L5.32 11.55L5.32 11.55Q6.08 11.55 6.61 11.32L6.61 11.32L6.61 11.32Q7.14 11.09 7.50 10.63L7.50 10.63L7.50 10.63Q7.88 10.15 8.08 9.41L8.08 9.41L8.08 9.41Q8.27 8.68 8.27 7.64L8.27 7.64L8.27 7.64Q8.27 5.66 7.50 4.61L7.50 4.61L7.50 4.61Q7.13 4.09 6.56 3.83L6.56 3.83L6.56 3.83Q5.99 3.57 5.18 3.57L5.18 3.57L3.57 3.57L3.57 11.55ZM0.57 2.52L5.70 2.52L5.70 2.52Q7.78 2.52 8.95 3.70L8.95 3.70L8.95 3.70Q9.60 4.37 9.95 5.35L9.95 5.35L9.95 5.35Q10.30 6.33 10.30 7.45L10.30 7.45L10.30 7.45Q10.30 8.64 9.94 9.66L9.94 9.66L9.94 9.66Q9.58 10.68 8.90 11.38L8.90 11.38L8.90 11.38Q8.32 12.01 7.50 12.31L7.50 12.31L7.50 12.31Q6.69 12.60 5.57 12.60L5.57 12.60L0.57 12.60L0.57 11.79L1.75 11.49L1.75 3.63L0.57 3.33L0.57 2.52ZM11.26 10.95L11.26 10.95L11.26 10.95Q11.26 10.37 11.52 9.93L11.52 9.93L11.52 9.93Q11.77 9.49 12.31 9.16L12.31 9.16L12.31 9.16Q12.85 8.82 13.69 8.58L13.69 8.58L13.69 8.58Q14.52 8.34 15.67 8.16L15.67 8.16L15.67 8.16Q15.60 7.46 15.51 7.09L15.51 7.09L15.51 7.09Q15.41 6.72 15.26 6.44L15.26 6.44L15.26 6.44Q15.06 6.12 14.80 5.92L14.80 5.92L14.80 5.92Q14.55 5.73 14.14 5.73L14.14 5.73L14.14 5.73Q13.85 5.73 13.60 5.84L13.60 5.84L13.60 5.84Q13.36 5.95 13.27 6.15L13.27 6.15L13.27 6.15Q13.47 6.26 13.54 6.46L13.54 6.46L13.54 6.46Q13.62 6.66 13.62 6.82L13.62 6.82L13.62 6.82Q13.62 7.17 13.31 7.44L13.31 7.44L13.31 7.44Q13.01 7.71 12.57 7.71L12.57 7.71L12.57 7.71Q12.12 7.71 11.88 7.43L11.88 7.43L11.88 7.43Q11.63 7.14 11.63 6.71L11.63 6.71L11.63 6.71Q11.63 6.27 11.87 5.94L11.87 5.94L11.87 5.94Q12.11 5.60 12.50 5.37L12.50 5.37L12.50 5.37Q12.89 5.14 13.38 5.02L13.38 5.02L13.38 5.02Q13.86 4.90 14.35 4.90L14.35 4.90L14.35 4.90Q15.01 4.90 15.53 5.09L15.53 5.09L15.53 5.09Q16.06 5.28 16.38 5.56L16.38 5.56L16.38 5.56Q17.49 6.54 17.49 8.67L17.49 8.67L17.49 10.49L17.49 10.49Q17.49 11.19 17.58 11.45L17.58 11.45L17.58 11.45Q17.67 11.70 17.98 11.70L17.98 11.70L18.61 11.70L18.61 12.33L18.61 12.33Q17.32 12.74 16.66 12.74L16.66 12.74L16.66 12.74Q16.42 12.74 16.27 12.67L16.27 12.67L16.27 12.67Q16.13 12.60 16.04 12.43L16.04 12.43L16.04 12.43Q15.96 12.26 15.93 11.97L15.93 11.97L15.93 11.97Q15.89 11.68 15.89 11.21L15.89 11.21L15.83 11.21L15.83 11.21Q15.40 11.93 14.69 12.33L14.69 12.33L14.69 12.33Q13.97 12.74 13.15 12.74L13.15 12.74L13.15 12.74Q12.26 12.74 11.76 12.26L11.76 12.26L11.76 12.26Q11.26 11.79 11.26 10.95ZM14 11.72L14 11.72L14 11.72Q14.29 11.72 14.65 11.53L14.65 11.53L14.65 11.53Q15.01 11.34 15.27 10.98L15.27 10.98L15.27 10.98Q15.43 10.78 15.57 10.42L15.57 10.42L15.57 10.42Q15.71 10.05 15.71 9.55L15.71 9.55L15.71 9.55Q15.71 9.38 15.69 9.18L15.69 9.18L15.69 9.18Q15.68 8.97 15.65 8.78L15.65 8.78L15.65 8.78Q14.92 8.93 14.44 9.11L14.44 9.11L14.44 9.11Q13.96 9.28 13.66 9.49L13.66 9.49L13.66 9.49Q13.37 9.70 13.24 9.97L13.24 9.97L13.24 9.97Q13.12 10.25 13.12 10.60L13.12 10.60L13.12 10.60Q13.12 11.21 13.40 11.47L13.40 11.47L13.40 11.47Q13.68 11.72 14 11.72ZM26.32 8.82L26.32 8.82L26.32 8.82Q26.32 9.72 26.06 10.51L26.06 10.51L26.06 10.51Q25.80 11.30 25.31 11.83L25.31 11.83L25.31 11.83Q24.85 12.32 24.21 12.53L24.21 12.53L24.21 12.53Q23.56 12.74 22.68 12.74L22.68 12.74L22.68 12.74Q21.80 12.74 21.15 12.53L21.15 12.53L21.15 12.53Q20.51 12.32 20.05 11.83L20.05 11.83L20.05 11.83Q19.56 11.30 19.30 10.51L19.30 10.51L19.30 10.51Q19.04 9.72 19.04 8.82L19.04 8.82L19.04 8.82Q19.04 7.92 19.30 7.13L19.30 7.13L19.30 7.13Q19.56 6.34 20.05 5.81L20.05 5.81L20.05 5.81Q20.51 5.32 21.15 5.11L21.15 5.11L21.15 5.11Q21.80 4.90 22.68 4.90L22.68 4.90L22.68 4.90Q23.56 4.90 24.21 5.11L24.21 5.11L24.21 5.11Q24.85 5.32 25.31 5.81L25.31 5.81L25.31 5.81Q25.80 6.34 26.06 7.13L26.06 7.13L26.06 7.13Q26.32 7.92 26.32 8.82ZM21.41 11.24L21.41 11.24L21.41 11.24Q21.78 11.80 22.68 11.80L22.68 11.80L22.68 11.80Q23.58 11.80 23.95 11.24L23.95 11.24L23.95 11.24Q24.40 10.56 24.40 8.82L24.40 8.82L24.40 8.82Q24.40 7.08 23.95 6.40L23.95 6.40L23.95 6.40Q23.58 5.84 22.68 5.84L22.68 5.84L22.68 5.84Q21.78 5.84 21.41 6.40L21.41 6.40L21.41 6.40Q20.96 7.08 20.96 8.82L20.96 8.82L20.96 8.82Q20.96 10.56 21.41 11.24Z"></path></g><!----><g data-v-423bf9ae="" id="6c184a4d-c793-47a8-af29-44a28d1e7d2c" transform="matrix(1.0845111423068576,0,0,1.0845111423068576,-0.09784678494666821,0.07260119955236632)" stroke="none" fill="white"><path d="M74.856 57H25.759l-3.043-4.523-2.753.326L24.314 61h58.647zM17.726 53.845L.279 82.152l6.019 15.454L21.792 60.9z"></path><path d="M52.174 0L20.986 47.827l4.826 6.421zM53.148.829L27.04 55h52.219zM100 97L82.961 63H53v34zM23.338 63L8.25 97H50V63z"></path></g><!----></svg>